SplineFontDB: 3.2
FontName: FanEgyHier
FullName: FanEgyHier
FamilyName: FanEgyHier
Weight: Regular
Copyright: Copyright (c) 2021, 
UComments: "2021-6-22: Created with FontForge (http://fontforge.org)"
Version: 001.000
ItalicAngle: 0
UnderlinePosition: -856.064
UnderlineWidth: 98.304
Ascent: 1638
Descent: 410
InvalidEm: 0
LayerCount: 2
Layer: 0 0 "Back" 1
Layer: 1 0 "Fore" 0
XUID: [1021 991 -1287261736 26963]
OS2Version: 0
OS2_WeightWidthSlopeOnly: 0
OS2_UseTypoMetrics: 1
CreationTime: 1624312218
ModificationTime: 1625166234
OS2TypoAscent: 0
OS2TypoAOffset: 1
OS2TypoDescent: 0
OS2TypoDOffset: 1
OS2TypoLinegap: 0
OS2WinAscent: 0
OS2WinAOffset: 1
OS2WinDescent: 0
OS2WinDOffset: 1
HheadAscent: 0
HheadAOffset: 1
HheadDescent: 0
HheadDOffset: 1
OS2Vendor: 'PfEd'
MarkAttachClasses: 1
DEI: 91125
Encoding: UnicodeFull
UnicodeInterp: none
NameList: AGL For New Fonts
DisplaySize: -48
AntiAlias: 1
FitToEm: 0
WinInfo: 999856 38 14
BeginPrivate: 0
EndPrivate
BeginChars: 1114112 35

StartChar: A
Encoding: 65 65 0
Width: 1150
Flags: HW
LayerCount: 2
Fore
SplineSet
1130 -30 m 1
 986 -174 l 1
 816.666992188 -104.666992188 711 5.6669921875 669 157 c 1
 648.333007812 130.333007812 590 70.6669921875 494 -22 c 0
 438.666992188 -75.3330078125 377.333007812 -102 310 -102 c 0
 230.666992188 -102 162.5 -74.1669921875 105.5 -18.5 c 0
 48.5 37.1669921875 20 104.666992188 20 184 c 0
 20 283.333007812 61.6669921875 396 145 522 c 1
 367 818 l 2
 399.666992188 863.333007812 416 901 416 931 c 0
 416 989.666992188 374.666992188 1063.66699219 292 1153 c 0
 216.666992188 1234.33300781 147.666992188 1289 85 1317 c 1
 229 1461 l 1
 289.666992188 1433.66699219 359 1377.33300781 437 1292 c 0
 521.666992188 1198.66699219 564 1123.66699219 564 1067 c 0
 564 1037 547.666992188 999.333007812 515 954 c 2
 293 658 l 1
 209.666992188 532 168 419.333007812 168 320 c 0
 168 240.666992188 194.5 175.166992188 247.5 123.5 c 0
 300.5 71.8330078125 366.666992188 46 446 46 c 0
 488 46 523 52.6669921875 551 66 c 1
 587.666992188 130.666992188 613 237.666992188 627 387 c 1
 773 533 l 1
 795.666992188 363.666992188 823 248.666992188 855 188 c 0
 903 98 994.666992188 25.3330078125 1130 -30 c 1
EndSplineSet
EndChar

StartChar: a
Encoding: 97 97 1
Width: 1240
Flags: HW
LayerCount: 2
Fore
SplineSet
1220 862 m 0
 1220 793.333007812 1176.66699219 659 1090 459 c 1
 934 303 l 1
 1026 515.666992188 1072 656.666992188 1072 726 c 0
 1072 739.333007812 1070 749.333007812 1066 756 c 0
 1062.66699219 758 1058.33300781 759 1053 759 c 0
 1026.33300781 759 910.666992188 699 706 579 c 0
 501.333007812 459 359.333007812 399 280 399 c 0
 238.666992188 399 186.666992188 450.666992188 124 554 c 0
 74.6669921875 636 40 708 20 770 c 1
 165 915 l 1
 185 851.666992188 218.333007812 780.333007812 265 701 c 0
 324.333007812 598.333007812 374.666992188 547 416 547 c 0
 495.333007812 547 637.333007812 607 842 727 c 0
 1046.66699219 847 1162.33300781 907 1189 907 c 0
 1209.66699219 907 1220 892 1220 862 c 0
EndSplineSet
EndChar

StartChar: b
Encoding: 98 98 2
Width: 1105
Flags: HW
LayerCount: 2
Fore
SplineSet
1085 145 m 1
 933 -7 l 1
 835 -35 742.666992188 -49 656 -49 c 0
 579.333007812 -49 505.666992188 -27.3330078125 435 16 c 0
 364.333007812 59.3330078125 309.666992188 114.666992188 271 182 c 1
 264.333007812 174 256.333007812 165.333007812 247 156 c 2
 106 14 l 2
 82 -10 62 -22 46 -22 c 0
 28.6669921875 -22 20 -10.3330078125 20 13 c 0
 20 147.666992188 42.6669921875 357 88 641 c 1
 124.666992188 853.666992188 161.333007812 1066.66699219 198 1280 c 1
 348 1430 l 1
 311.333007812 1214.66699219 274.333007812 999.333007812 237 784 c 1
 191 497.333007812 168 285.666992188 168 149 c 0
 168 140.333007812 169.333007812 133.333007812 172 128 c 1
 182 126 l 1
 202.666992188 162 223.666992188 198.666992188 245 236 c 1
 389 380 l 1
 419.666992188 297.333007812 472.5 229.833007812 547.5 177.5 c 0
 622.5 125.166992188 704 99 792 99 c 0
 880.666992188 99 978.333007812 114.333007812 1085 145 c 1
EndSplineSet
EndChar

StartChar: d
Encoding: 100 100 3
Width: 1695
Flags: HW
LayerCount: 2
Fore
SplineSet
1675 744 m 0
 1675 652.666992188 1611 542.666992188 1483 414 c 2
 1326 257 l 1
 1310 274 l 1
 1454.66699219 418 1527 529.333007812 1527 608 c 0
 1527 663.333007812 1503.33300781 691 1456 691 c 0
 1410 691 1326.33300781 663.333007812 1205 608 c 0
 1055.66699219 540.666992188 968 503 942 495 c 0
 764 441 497.333007812 400.333007812 142 373 c 0
 94.6669921875 369.666992188 54 367.666992188 20 367 c 1
 168 515 l 1
 228.666992188 515.666992188 335.666992188 523.333007812 489 538 c 1
 572.333007812 582 658 640.333007812 746 713 c 0
 841.333007812 794.333007812 936.666992188 876 1032 958 c 1
 1180.66699219 1077.33300781 1281 1137 1333 1137 c 0
 1361 1137 1388 1115 1414 1071 c 1
 1430.66699219 1036.33300781 1447.33300781 1002 1464 968 c 0
 1490.66699219 918.666992188 1527 875 1573 837 c 1
 1583 838.333007812 1589.33300781 839 1592 839 c 0
 1647.33300781 839 1675 807.333007812 1675 744 c 0
1361 765 m 1
 1343 787 1328 809.333007812 1316 832 c 0
 1301.33300781 864 1286.33300781 896 1271 928 c 0
 1248.33300781 968.666992188 1223.66699219 989 1197 989 c 0
 1153.66699219 989 1079.66699219 949 975 869 c 0
 961 857.666992188 893 800.666992188 771 698 c 0
 728.333007812 664 665.333007812 614 582 548 c 1
 777.333007812 570 942.666992188 601.666992188 1078 643 c 0
 1098.66699219 649.666992188 1193 690.333007812 1361 765 c 1
EndSplineSet
EndChar

StartChar: D
Encoding: 68 68 4
Width: 1599
Flags: HW
LayerCount: 2
Fore
SplineSet
1579 1442 m 1
 1435 1298 l 1
 1406.33300781 1308.66699219 1377 1314 1347 1314 c 0
 1287 1314 1217.33300781 1290.66699219 1138 1244 c 1
 1132.66699219 1230 1130 1216 1130 1202 c 0
 1130 1165.33300781 1163.83300781 1133.5 1231.5 1106.5 c 0
 1299.16699219 1079.5 1333 1048 1333 1012 c 0
 1333 989.333007812 1323 968 1303 948 c 2
 1161 807 l 2
 1111 757.666992188 1040.66699219 728.333007812 950 719 c 0
 938 718.333007812 919.666992188 717 895 715 c 0
 715.666992188 699 559 651.333007812 425 572 c 0
 408.333007812 562.666992188 385.333007812 547 356 525 c 0
 344.666992188 513.666992188 327.666992188 488.333007812 305 449 c 0
 224.333007812 309.666992188 178.666992188 136.666992188 168 -70 c 1
 20 -218 l 1
 36 83.3330078125 121 311 275 465 c 2
 416 606 l 2
 560 750 765 835.666992188 1031 863 c 0
 1065.66699219 866.333007812 1116.66699219 875.333007812 1184 890 c 1
 1178.66699219 914.666992188 1143 940.666992188 1077 968 c 0
 1013.66699219 994 982 1026.66699219 982 1066 c 0
 982 1103.33300781 1001.66699219 1141.66699219 1041 1181 c 2
 1182 1322 l 2
 1217.33300781 1357.33300781 1264 1389 1322 1417 c 0
 1384 1447 1437.66699219 1462 1483 1462 c 0
 1511.66699219 1462 1543.66699219 1455.33300781 1579 1442 c 1
EndSplineSet
EndChar

StartChar: f
Encoding: 102 102 5
Width: 2188
Flags: HW
LayerCount: 2
Fore
SplineSet
2168 792 m 1
 2122 720.666992188 2095.33300781 679.333007812 2088 668 c 0
 2056 622 2025 583.666992188 1995 553 c 2
 1854 412 l 2
 1830.66699219 388.666992188 1806.66699219 369 1782 353 c 0
 1726.66699219 317 1628.66699219 289.666992188 1488 271 c 1
 1382.66699219 261 1277.33300781 250.666992188 1172 240 c 0
 956.666992188 217.333007812 788 188.666992188 666 154 c 0
 577.333007812 129.333007812 468.666992188 88 340 30 c 0
 151.333007812 -54.6669921875 44.6669921875 -102 20 -112 c 1
 175 43 l 1
 200.333007812 53 303.666992188 99 485 181 c 0
 610.333007812 237.666992188 716 278 802 302 c 0
 923.333007812 336 1092 364.666992188 1308 388 c 0
 1404.66699219 397.333007812 1501.33300781 406.333007812 1598 415 c 1
 1718.66699219 429.666992188 1811.33300781 451 1876 479 c 1
 1836 551.666992188 1805.66699219 639 1785 741 c 1
 1931 886 l 1
 1951 786.666992188 1978 703.333007812 2012 636 c 1
 2168 792 l 1
EndSplineSet
EndChar

StartChar: g
Encoding: 103 103 6
Width: 1731
Flags: HW
LayerCount: 2
Fore
SplineSet
1711 137 m 1
 1563 -11 l 1
 20 -98 l 1
 168 50 l 1
 395 62 l 1
 345 225.333007812 320 365.333007812 320 482 c 0
 320 604.666992188 352.666992188 699.666992188 418 767 c 0
 461.333007812 812.333007812 528.333007812 877 619 961 c 1
 634.333007812 987 642 1015 642 1045 c 0
 642 1060.33300781 633 1077 615 1095 c 0
 557.666992188 1152.33300781 436 1183 250 1187 c 1
 397 1334 l 1
 574.333007812 1330.66699219 694.333007812 1298 757 1236 c 0
 779 1214 790 1195.66699219 790 1181 c 0
 790 1133.66699219 765.666992188 1085 717 1035 c 1
 676.333007812 989 612 923.333007812 524 838 c 1
 486.666992188 774 468 700.666992188 468 618 c 0
 468 546 479.5 453.333007812 502.5 340 c 0
 525.5 226.666992188 551 137.666992188 579 73 c 1
 798 85 l 1
 798 179 l 2
 798 446.333007812 793 625.333007812 783 716 c 1
 929 862 l 1
 939.666992188 766 945 569.666992188 945 273 c 0
 945 196.333007812 944.333007812 136.666992188 943 94 c 1
 1082 102 l 1
 1078.66699219 173.333007812 1077 238.333007812 1077 297 c 0
 1077 591 1104.66699219 813.666992188 1160 965 c 0
 1164 978.333007812 1171.66699219 997 1183 1021 c 0
 1183 1021.66699219 1235.66699219 1074.33300781 1341 1179 c 1
 1263.66699219 1017 1225 768.333007812 1225 433 c 0
 1225 313 1228.33300781 205.333007812 1235 110 c 1
 1711 137 l 1
EndSplineSet
EndChar

StartChar: h
Encoding: 104 104 7
Width: 1314
Flags: HW
LayerCount: 2
Fore
SplineSet
1294 105 m 1
 1144 -46 l 1
 1106.66699219 -54 1082.33300781 -58 1071 -58 c 0
 1051 -58 1034.16699219 -49.1669921875 1020.5 -31.5 c 0
 1006.83300781 -13.8330078125 1000.33300781 5 1001 25 c 2
 1008 342 l 1
 953.333007812 286.666992188 881.333007812 231 792 175 c 0
 700 117.666992188 618.333007812 78.3330078125 547 57 c 0
 535.666992188 53.6669921875 526 52 518 52 c 0
 470 52 445.333007812 97.3330078125 444 188 c 1
 356 101.333007812 295.666992188 44.6669921875 263 18 c 0
 175.666992188 -53.3330078125 106 -89 54 -89 c 0
 31.3330078125 -89 20 -68.6669921875 20 -28 c 2
 20 -23 l 1
 56 784 l 2
 58 832 61 865.666992188 65 885 c 0
 73 923 87.6669921875 952.666992188 109 974 c 0
 145 1010.66699219 180.666992188 1047.66699219 216 1085 c 1
 260 1126.33300781 302.333007812 1154 343 1168 c 0
 356.333007812 1172.66699219 422 1189.66699219 540 1219 c 2
 928 1316 l 1
 777 1165 l 1
 694.333007812 1143.66699219 570 1112.33300781 404 1071 c 0
 361.333007812 1061.66699219 297.666992188 1045.33300781 213 1022 c 1
 209 1002.66699219 206 968.666992188 204 920 c 2
 168 105 l 2
 168 74.3330078125 175.333007812 59 190 59 c 0
 220 59 261 74.6669921875 313 106 c 0
 359 134 395 161.666992188 421 189 c 0
 426.333007812 196.333007812 434.333007812 205.333007812 445 216 c 1
 447.666992188 358 480 503 542 651 c 0
 550 670.333007812 559.333007812 691.333007812 570 714 c 0
 572 716.666992188 587.333007812 732.333007812 616 761 c 0
 640.666992188 785.666992188 678 822.666992188 728 872 c 1
 637.333007812 679.333007812 592 499.333007812 592 332 c 0
 592 244 612.666992188 200 654 200 c 0
 690 200 751 223.666992188 837 271 c 0
 903.666992188 308.333007812 961 344.666992188 1009 380 c 1
 1025 1218 l 1
 1173 1366 l 1
 1149 161 l 2
 1148.33300781 113.666992188 1167.66699219 90 1207 90 c 0
 1218.33300781 90 1247.33300781 95 1294 105 c 1
EndSplineSet
EndChar

StartChar: H
Encoding: 72 72 8
Width: 494
Flags: HW
LayerCount: 2
Fore
SplineSet
474 901 m 1
 409.333007812 834.333007812 367.666992188 791.666992188 349 773 c 0
 301 726.333007812 256.333007812 687.333007812 215 656 c 1
 279.666992188 615.333007812 312 573.666992188 312 531 c 0
 312 230.333007812 319 19.3330078125 333 -102 c 1
 187 -248 l 1
 171.666992188 -115.333007812 164 99 164 395 c 0
 164 451 116 499 20 539 c 1
 51.3330078125 572.333007812 99.3330078125 620.333007812 164 683 c 1
 197.333007812 702.333007812 240.666992188 728.666992188 294 762 c 1
 21 816 l 1
 62.3330078125 860.666992188 127.666992188 924 217 1006 c 1
 35 1077 l 1
 71.6669921875 1148.33300781 113.666992188 1208.33300781 161 1257 c 0
 205 1303 273.666992188 1369.33300781 367 1456 c 1
 373 1450 l 1
 316.333007812 1394.66699219 281.333007812 1359.33300781 268 1344 c 0
 236.666992188 1308 209 1266.33300781 185 1219 c 1
 385 1140 l 1
 344.333007812 1096.66699219 280.666992188 1035.33300781 194 956 c 1
 474 901 l 1
EndSplineSet
EndChar

StartChar: i
Encoding: 105 105 9
Width: 698
Flags: HW
LayerCount: 2
Fore
SplineSet
678 763 m 1
 664 747 603.666992188 686 497 580 c 0
 435.666992188 518.666992188 361 453.666992188 273 385 c 1
 274.333007812 320.333007812 275.333007812 255.666992188 276 191 c 0
 279.333007812 85.6669921875 285.666992188 29.3330078125 295 22 c 0
 299.666992188 18 307.666992188 16 319 16 c 0
 339 16 366 22.6669921875 400 36 c 1
 245 -119 l 1
 223 -127.666992188 202.333007812 -132 183 -132 c 0
 172.333007812 -132 162.666992188 -127.666992188 154 -119 c 0
 138.666992188 -103.666992188 130 -27.6669921875 128 109 c 0
 125.333007812 240.333007812 122 437.666992188 118 701 c 0
 117.333007812 763.666992188 116 807 114 831 c 0
 109.333007812 877.666992188 99 920 83 958 c 0
 67 993.333007812 46 1047 20 1119 c 1
 34 1153 50.3330078125 1179.33300781 69 1198 c 2
 211 1339 l 2
 221.666992188 1349.66699219 232.666992188 1358 244 1364 c 1
 284.666992188 1362.66699219 320.166992188 1351.5 350.5 1330.5 c 0
 380.833007812 1309.5 420 1276.33300781 468 1231 c 1
 326 1089 l 1
 296.666992188 1117 249.666992188 1154.33300781 185 1201 c 1
 195 1177 210.333007812 1141.33300781 231 1094 c 0
 253.666992188 1040.66699219 265.333007812 955 266 837 c 0
 266.666992188 751 268.666992188 624.666992188 272 458 c 1
 294.666992188 474.666992188 328.333007812 499.666992188 373 533 c 0
 465.666992188 602.333007812 565.333007812 691 672 799 c 1
 678 763 l 1
EndSplineSet
EndChar

StartChar: I
Encoding: 73 73 10
Width: 836
Flags: HW
LayerCount: 2
Fore
SplineSet
816 385 m 1
 674 243 l 1
 607.333007812 321 534.333007812 431 455 573 c 0
 380.333007812 706.333007812 322.666992188 826.333007812 282 933 c 1
 426 1077 l 1
 466.666992188 970.333007812 524 850 598 716 c 0
 677.333007812 572 750 461.666992188 816 385 c 1
487 294 m 1
 345 152 l 1
 288.333007812 218 228 306 164 416 c 0
 100 526 52 622.666992188 20 706 c 1
 164 850 l 1
 196 765.333007812 243.333007812 668.666992188 306 560 c 0
 370.666992188 447.333007812 431 358.666992188 487 294 c 1
EndSplineSet
EndChar

StartChar: k
Encoding: 107 107 11
Width: 1421
Flags: HW
LayerCount: 2
Fore
SplineSet
1401 49 m 1
 1257 -95 l 1
 1039 402.333007812 800.666992188 802 542 1104 c 2
 536 1111 l 1
 487 1064 l 2
 442.333007812 1022.66699219 377.666992188 979 293 933 c 0
 198.333007812 882.333007812 126.333007812 857 77 857 c 0
 39 857 20 874 20 908 c 0
 20 966 114 1085 302 1265 c 0
 374 1333.66699219 436.666992188 1368 490 1368 c 0
 546.666992188 1368 613.333007812 1325.33300781 690 1240 c 0
 935.333007812 967.333007812 1172.33300781 570.333007812 1401 49 c 1
519 1129 m 1
 460.333007812 1189.66699219 405.333007812 1220 354 1220 c 0
 307.333007812 1220 268.666992188 1206 238 1178 c 0
 226.666992188 1167.33300781 212.166992188 1145.66699219 194.5 1113 c 0
 176.833007812 1080.33300781 168 1057.33300781 168 1044 c 0
 168 1018 183 1005 213 1005 c 0
 289 1005 391 1046.33300781 519 1129 c 1
EndSplineSet
EndChar

StartChar: K
Encoding: 75 75 12
Width: 2008
Flags: HW
LayerCount: 2
Fore
SplineSet
1988 1008 m 1
 1846 866 l 2
 1781.33300781 801.333007812 1674 711.333007812 1524 596 c 0
 1347.33300781 460.666992188 1237 393 1193 393 c 0
 1157.66699219 393 1125 408 1095 438 c 1
 1071 466 1047 494.333007812 1023 523 c 1
 870.333007812 307.666992188 718 151 566 53 c 1
 402 53 220 -5.3330078125 20 -122 c 1
 47.3330078125 -94 88 -52.6669921875 142 2 c 0
 166.666992188 26 180.333007812 39.3330078125 183 42 c 0
 207 60.6669921875 261.333007812 88.6669921875 346 126 c 1
 368.666992188 508.666992188 466 785.333007812 638 956 c 2
 780 1097 l 2
 886.666992188 1203 1012.33300781 1256 1157 1256 c 0
 1420.33300781 1256 1620.33300781 1112 1757 824 c 1
 1839 892 l 1
 1818 1225 l 1
 1965 1372 l 1
 1988 1008 l 1
1602 704 m 1
 1468 973.333007812 1274.33300781 1108 1021 1108 c 0
 948.333007812 1108 865.333007812 1080.66699219 772 1026 c 0
 761.333007812 1020 747 1010.66699219 729 998 c 0
 726.333007812 995.333007812 716.666992188 981 700 955 c 0
 622 833.666992188 570.666992188 724.333007812 546 627 c 0
 513.333007812 497 494.666992188 346.333007812 490 175 c 1
 559.333007812 192.333007812 630 201 702 201 c 1
 760 240.333007812 836 327.333007812 930 462 c 1
 942 484 962 514.666992188 990 554 c 0
 990 554.666992188 1037.33300781 602 1132 696 c 1
 1160.66699219 663.333007812 1189.33300781 631 1218 599 c 0
 1253.33300781 560.333007812 1290.33300781 541 1329 541 c 0
 1366.33300781 541 1457.33300781 595.333007812 1602 704 c 1
EndSplineSet
EndChar

StartChar: l
Encoding: 108 108 13
Width: 1589
Flags: HW
LayerCount: 2
Fore
SplineSet
1569 390 m 1
 1505 315.333007812 1451 258.333007812 1407 219 c 0
 1388.33300781 202.333007812 1348.66699219 179.333007812 1288 150 c 0
 1168.66699219 92 1015.33300781 43.6669921875 828 5 c 0
 649.333007812 -31.6669921875 489.333007812 -50 348 -50 c 0
 328 -50 307.833007812 -39.6669921875 287.5 -19 c 0
 267.166992188 1.6669921875 257 22 257 42 c 0
 257 94 308.666992188 171.666992188 412 275 c 2
 553 416 l 2
 610.333007812 473.333007812 683.333007812 539.333007812 772 614 c 0
 847.333007812 676.666992188 922.666992188 739.666992188 998 803 c 0
 1030 832.333007812 1078.66699219 876.333007812 1144 935 c 0
 1157.33300781 946.333007812 1176.66699219 964 1202 988 c 0
 1250 1037.33300781 1274 1079 1274 1113 c 0
 1274 1157 1252.66699219 1190.33300781 1210 1213 c 0
 1175.33300781 1231.66699219 1134 1241 1086 1241 c 0
 993.333007812 1241 909 1202 833 1124 c 1
 820 1138 l 1
 851.333007812 1172 902.666992188 1223.33300781 974 1292 c 0
 1041.33300781 1356.66699219 1124 1389 1222 1389 c 0
 1271.33300781 1389 1315.66699219 1378 1355 1356 c 0
 1403 1329.33300781 1427 1293.33300781 1427 1248 c 0
 1427 1196 1386 1129 1304 1047 c 2
 1163 906 l 2
 1107 850 953.666992188 715.333007812 703 502 c 0
 659 466 594.666992188 409.333007812 510 332 c 1
 440 260.666992188 405 208.333007812 405 175 c 0
 405 155.666992188 413.333007812 138 430 122 c 0
 446.666992188 106 464.666992188 98 484 98 c 0
 654 98 842.333007812 123.666992188 1049 175 c 0
 1278.33300781 231.666992188 1451.66699219 303.333007812 1569 390 c 1
597 629 m 1
 455 487 l 1
 351.666992188 573.666992188 241.333007812 617 124 617 c 0
 92 617 57.3330078125 611.666992188 20 601 c 1
 172 753 l 1
 200 761 229.333007812 765 260 765 c 0
 376.666992188 765 489 719.666992188 597 629 c 1
EndSplineSet
EndChar

StartChar: m
Encoding: 109 109 14
Width: 686
Flags: HW
LayerCount: 2
Fore
SplineSet
666 1340 m 0
 666 1313.33300781 627 1254.83300781 549 1164.5 c 0
 471 1074.16699219 432 1012.66699219 432 980 c 0
 432 951.333007812 456.5 916.833007812 505.5 876.5 c 0
 554.5 836.166992188 579 803.333007812 579 778 c 0
 579 731.333007812 553.333007812 651 502 537 c 0
 463.333007812 455.666992188 425 374.666992188 387 294 c 0
 326.333007812 155.333007812 289.666992188 37.6669921875 277 -59 c 1
 128 -208 l 1
 142 -101.333007812 179 20.6669921875 239 158 c 0
 277 238.666992188 315.333007812 319.666992188 354 401 c 0
 405.333007812 515 431 595.333007812 431 642 c 0
 431 667.333007812 406.5 700.166992188 357.5 740.5 c 0
 308.5 780.833007812 284 815.333007812 284 844 c 0
 284 876.666992188 323 938.166992188 401 1028.5 c 0
 479 1118.83300781 518 1177.33300781 518 1204 c 0
 518 1246 483.666992188 1267 415 1267 c 0
 357.666992188 1267 289 1243.66699219 209 1197 c 0
 140.333007812 1157.66699219 81.3330078125 1113 32 1063 c 1
 20 1079 l 1
 171 1230 l 2
 213.666992188 1272.66699219 272.666992188 1313.33300781 348 1352 c 0
 430 1394 497.666992188 1415 551 1415 c 0
 577.666992188 1415 602.333007812 1409.33300781 625 1398 c 0
 652.333007812 1384 666 1364.66699219 666 1340 c 0
EndSplineSet
EndChar

StartChar: M
Encoding: 77 77 15
Width: 1640
Flags: HW
LayerCount: 2
Fore
SplineSet
1620 462 m 1
 1472 314 l 1
 869.333007812 298 398.333007812 290 59 290 c 0
 33 290 20 302.666992188 20 328 c 0
 20 394 110.666992188 514.666992188 292 690 c 0
 306 703.333007812 328 718 358 734 c 1
 1616 913 l 1
 1467 763 l 1
 221 586 l 1
 185.666992188 532 168 491.333007812 168 464 c 0
 168 446.666992188 177 438 195 438 c 0
 542.333007812 438 1017.33300781 446 1620 462 c 1
EndSplineSet
EndChar

StartChar: n
Encoding: 110 110 16
Width: 1308
Flags: HW
LayerCount: 2
Fore
SplineSet
1288 721 m 0
 1288 693 1277.66699219 649.5 1257 590.5 c 0
 1236.33300781 531.5 1217.33300781 489.333007812 1200 464 c 0
 1198 461.333007812 1181.66699219 444.666992188 1151 414 c 0
 1125 388.666992188 1086.33300781 350.666992188 1035 300 c 1
 1105 418.666992188 1140 513.666992188 1140 585 c 0
 1140 637.666992188 1114.66699219 664 1064 664 c 0
 968 664 797 641 551 595 c 0
 374.333007812 560.333007812 197.333007812 526 20 492 c 1
 170 642 l 1
 344.666992188 676 519.333007812 709.666992188 694 743 c 0
 936.666992188 789 1105.33300781 812 1200 812 c 0
 1258.66699219 812 1288 781.666992188 1288 721 c 0
EndSplineSet
EndChar

StartChar: N
Encoding: 78 78 17
Width: 1404
Flags: HW
LayerCount: 2
Fore
SplineSet
1384 1342 m 0
 1384 1210.66699219 1290.66699219 1051 1104 863 c 0
 1041.33300781 799.666992188 945 706.333007812 815 583 c 1
 991 576.333007812 1079 523 1079 423 c 0
 1079 386.333007812 1066.33300781 354.333007812 1041 327 c 0
 999.666992188 282.333007812 952.666992188 235.333007812 900 186 c 0
 854 142.666992188 779 121 675 121 c 0
 645 121 612 123 576 127 c 1
 576.666992188 122.333007812 577 118.666992188 577 116 c 0
 577 88 566.333007812 62.3330078125 545 39 c 0
 469.666992188 -43 330.333007812 -167.333007812 127 -334 c 1
 115 -324 l 1
 146.333007812 -292 193.666992188 -244.666992188 257 -182 c 1
 295 -152 351 -106.666992188 425 -46 c 1
 427.666992188 -38.6669921875 429 -30 429 -20 c 0
 429 1.3330078125 414.666992188 36.3330078125 386 85 c 0
 240 333 158.333007812 475 141 511 c 0
 60.3330078125 678.333007812 20 835.333007812 20 982 c 0
 20 1050 23.6669921875 1113 31 1171 c 1
 180 1320 l 1
 172 1256.66699219 168 1189.33300781 168 1118 c 0
 168 932 240.333007812 715.666992188 385 469 c 1
 419 503 l 1
 537 556.333007812 657 583.333007812 779 584 c 1
 829.666992188 637.333007812 905.666992188 716 1007 820 c 0
 1159.66699219 975.333007812 1236 1104 1236 1206 c 0
 1236 1330 1195.66699219 1392 1115 1392 c 0
 1079 1392 1043 1380.33300781 1007 1357 c 1
 976.333007812 1311 936.666992188 1256.33300781 888 1193 c 1
 738 1044 l 1
 764.666992188 1089.33300781 791.666992188 1135 819 1181 c 0
 851 1235 882.333007812 1277.33300781 913 1308 c 2
 1055 1450 l 2
 1115 1510 1180.33300781 1540 1251 1540 c 0
 1297 1540 1332 1517.33300781 1356 1472 c 0
 1374.66699219 1436 1384 1392.66699219 1384 1342 c 0
931 281 m 1
 931 287 l 2
 931 386.333007812 836.333007812 436 647 436 c 0
 575.666992188 436 501 425.333007812 423 404 c 1
 435.666992188 383.333007812 455 352 481 310 c 1
 497 326 l 1
 584.333007812 288 689 269 811 269 c 0
 855 269 895 273 931 281 c 1
EndSplineSet
EndChar

StartChar: p
Encoding: 112 112 18
Width: 1165
Flags: HW
LayerCount: 2
Fore
SplineSet
1145 291 m 1
 997 143 l 1
 772.333007812 127.666992188 485.333007812 120 136 120 c 2
 20 120 l 1
 167 268 l 1
 298 268 l 1
 312.666992188 400 320 548 320 712 c 0
 320 782 318.333007812 859.666992188 315 945 c 1
 462 1092 l 1
 466 990 468 908.666992188 468 848 c 0
 468 631.333007812 454.333007812 438 427 268 c 1
 471.666992188 268 527.333007812 268.666992188 594 270 c 1
 609.333007812 405.333007812 616.666992188 555.333007812 616 720 c 1
 764 867 l 1
 764 844 l 2
 764 630.666992188 750.666992188 440.333007812 724 273 c 1
 850 276 l 1
 864.666992188 406.666992188 872 550.333007812 872 707 c 0
 872 766.333007812 870.666992188 833.666992188 868 909 c 1
 1015 1056 l 1
 1018.33300781 962 1020 891 1020 843 c 0
 1020 636.333007812 1006.66699219 449.333007812 980 282 c 1
 1145 291 l 1
EndSplineSet
EndChar

StartChar: q
Encoding: 113 113 19
Width: 1465
Flags: HW
LayerCount: 2
Fore
SplineSet
1445 498 m 1
 1377.66699219 380 1306.33300781 267.666992188 1231 161 c 0
 1210.33300781 130.333007812 1176.66699219 85.6669921875 1130 27 c 1
 988 -115 l 1
 982 -109 l 1
 1088.66699219 23 1191.66699219 176 1291 350 c 1
 1106.33300781 349.333007812 893.666992188 334.666992188 653 306 c 0
 601.666992188 299.333007812 390.666992188 270 20 218 c 1
 169 368 l 1
 401 401 l 1
 402.333007812 415 403 432.666992188 403 454 c 0
 403 497.333007812 388.333007812 559.666992188 359 641 c 0
 329.666992188 722.333007812 315 784.666992188 315 828 c 0
 315 920 347.333007812 999.666992188 412 1067 c 0
 503.333007812 1162.33300781 566.333007812 1222.33300781 601 1247 c 0
 673 1297 755 1322 847 1322 c 0
 944.333007812 1322 1025.66699219 1294.33300781 1091 1239 c 0
 1160.33300781 1180.33300781 1195 1103 1195 1007 c 0
 1195 966.333007812 1188.16699219 906 1174.5 826 c 0
 1160.83300781 746 1154 685.666992188 1154 645 c 0
 1154 591 1161.66699219 539 1177 489 c 1
 1273.66699219 495 1363 498 1445 498 c 1
1047 871 m 0
 1047 966.333007812 1014.33300781 1041.66699219 949 1097 c 0
 887.666992188 1148.33300781 808.333007812 1174 711 1174 c 0
 633.666992188 1174 563.333007812 1156.66699219 500 1122 c 1
 475.333007812 1074.66699219 463 1022 463 964 c 0
 463 920.666992188 477.666992188 858.333007812 507 777 c 0
 536.333007812 695.666992188 551 633.333007812 551 590 c 0
 551 523.333007812 541 466 521 418 c 1
 710.333007812 444.666992188 872.666992188 464 1008 476 c 1
 1006.66699219 492.666992188 1006 503.666992188 1006 509 c 0
 1006 549.666992188 1012.83300781 610 1026.5 690 c 0
 1040.16699219 770 1047 830.333007812 1047 871 c 0
EndSplineSet
EndChar

StartChar: r
Encoding: 114 114 20
Width: 1773
Flags: HW
LayerCount: 2
Fore
SplineSet
1197 961 m 0
 1197 951.666992188 1195.66699219 939.333007812 1193 924 c 1
 1043 774 l 1
 1047 796.666992188 1049 813.666992188 1049 825 c 0
 1049 883 1023 912 971 912 c 0
 957 912 936 909.5 908 904.5 c 0
 880 899.5 859 897 845 897 c 0
 783 897 752 915 752 951 c 0
 752 978.333007812 774 1014 818 1058 c 2
 968 1208 l 1
 978 1199 l 1
 928.666992188 1149.66699219 904 1111.33300781 904 1084 c 0
 904 1056 931 1042 985 1042 c 0
 999 1042 1019.33300781 1044.83300781 1046 1050.5 c 0
 1072.66699219 1056.16699219 1093 1059 1107 1059 c 0
 1167 1059 1197 1026.33300781 1197 961 c 0
1730 913 m 1
 1586 770 l 1
 1422 1091.33300781 1210 1252 950 1252 c 0
 832.666992188 1252 706.666992188 1217 572 1147 c 0
 451.333007812 1084.33300781 345 1006 253 912 c 0
 235 890 206.666992188 858 168 816 c 2
 30 678 l 1
 20 690 l 1
 77.3330078125 757.333007812 176.666992188 861 318 1001 c 0
 587.333007812 1267 843.333007812 1400 1086 1400 c 0
 1350 1400 1564.66699219 1237.66699219 1730 913 c 1
1144 293 m 0
 1144 278.333007812 1139 260 1129 238 c 1
 972 81 l 1
 988 115.666992188 996 141 996 157 c 0
 996 195.666992188 963.333007812 217.666992188 898 223 c 0
 817.333007812 229 768.666992188 240.333007812 752 257 c 0
 743.333007812 265.666992188 739 273.666992188 739 281 c 0
 739 296.333007812 746 311.666992188 760 327 c 0
 854 429.666992188 934 496.666992188 1000 528 c 1
 887 415 l 1
 887.666992188 394.333007812 910.333007812 381.666992188 955 377 c 0
 1036.33300781 367.666992188 1077.33300781 363 1078 363 c 0
 1122 351.666992188 1144 328.333007812 1144 293 c 0
1753 336 m 1
 1722.33300781 303.333007812 1675 256 1611 194 c 0
 1592.33300781 177.333007812 1561.66699219 154.666992188 1519 126 c 0
 1308.33300781 -14 1092.33300781 -84 871 -84 c 0
 699 -84 545.333007812 -42 410 42 c 0
 261.333007812 134 168 259.333007812 130 418 c 1
 275 563 l 1
 313.666992188 401.666992188 405 276 549 186 c 0
 679.666992188 104.666992188 832.333007812 64 1007 64 c 0
 1266.33300781 64 1511.33300781 158.333007812 1742 347 c 1
 1753 336 l 1
EndSplineSet
EndChar

StartChar: R
Encoding: 82 82 21
Width: 1690
Flags: HW
LayerCount: 2
Fore
SplineSet
1670 972 m 0
 1670 797.333007812 1614.66699219 534 1504 182 c 0
 1450 10 1410.66699219 -89 1386 -115 c 2
 1229 -272 l 1
 1281 -171.333007812 1324.66699219 -64.3330078125 1360 49 c 0
 1470.66699219 401.666992188 1526 665 1526 839 c 0
 1526 929.666992188 1506.33300781 975 1467 975 c 0
 1393 975 1260 904.333007812 1068 763 c 1
 1245 940 l 2
 1247 942 1262 952.333007812 1290 971 c 0
 1438.66699219 1070.33300781 1542 1120 1600 1120 c 0
 1646.66699219 1120 1670 1070.66699219 1670 972 c 0
1338 596 m 0
 1338 564 1328.33300781 509.666992188 1309 433 c 1
 1158 282 l 1
 1179.33300781 367.333007812 1190 426.666992188 1190 460 c 0
 1190 503.333007812 1181.33300781 530.666992188 1164 542 c 0
 1151.33300781 549.333007812 1122 553 1076 553 c 0
 1073.33300781 553 1066 552.666992188 1054 552 c 0
 655.333007812 530 360.666992188 519 170 519 c 0
 120 519 70 520.666992188 20 524 c 1
 59.3330078125 566.666992188 108.333007812 615.666992188 167 671 c 1
 1254 1416 l 1
 1091 1243 l 1
 250 667 l 1
 268 666.333007812 297 666 337 666 c 0
 439.666992188 666 593.333007812 671.666992188 798 683 c 0
 1002.66699219 694.333007812 1156 700 1258 700 c 0
 1311.33300781 700 1338 665.333007812 1338 596 c 0
EndSplineSet
EndChar

StartChar: s
Encoding: 115 115 22
Width: 478
Flags: HW
LayerCount: 2
Fore
SplineSet
458 1092 m 0
 458 974 454.333007812 811.333007812 447 604 c 0
 443 466 432 259.333007812 414 -16 c 1
 265 -165 l 1
 277 -41 288.333007812 170 299 468 c 0
 306.333007812 675.333007812 310 838 310 956 c 0
 310 1069.33300781 285.333007812 1152.33300781 236 1205 c 1
 234.666992188 1197 231.666992188 1177.66699219 227 1147 c 0
 192.333007812 908.333007812 172.666992188 644.333007812 168 355 c 1
 20 207 l 1
 24.6669921875 511 44.3330078125 779 79 1011 c 0
 82.3330078125 1033.66699219 89 1067 99 1111 c 1
 111.666992188 1149 129.333007812 1179.33300781 152 1202 c 2
 293 1343 l 2
 309.666992188 1359.66699219 326.333007812 1368 343 1368 c 0
 353 1368 363.666992188 1362 375 1350 c 0
 430.333007812 1292.66699219 458 1206.66699219 458 1092 c 0
EndSplineSet
EndChar

StartChar: S
Encoding: 83 83 23
Width: 1745
Flags: HW
LayerCount: 2
Fore
SplineSet
1725 278 m 1
 1580 133 l 1
 1519.33300781 343.666992188 1488.66699219 536.666992188 1488 712 c 1
 1357.33300781 674.666992188 1219.33300781 656 1074 656 c 0
 1050.66699219 656 1026.66699219 656.333007812 1002 657 c 1
 977.333007812 581 949.666992188 508.666992188 919 440 c 1
 991.666992188 447.333007812 1057 454.666992188 1115 462 c 1
 966 313 l 1
 957.333007812 311.666992188 915.333007812 307 840 299 c 1
 683 142 l 1
 707 178.666992188 733.333007812 228 762 290 c 1
 569.333007812 270.666992188 392 261 230 261 c 0
 134 261 64 272 20 294 c 1
 27.3330078125 384 35 474 43 564 c 0
 57.6669921875 694.666992188 79.1669921875 775.333007812 107.5 806 c 0
 135.833007812 836.666992188 183 883.666992188 249 947 c 0
 257 954.333007812 264.333007812 958 271 958 c 0
 275 958 279.666992188 957.333007812 285 956 c 0
 689 854 1002.33300781 803 1225 803 c 0
 1365 803 1502 822.666992188 1636 862 c 1
 1636 679.333007812 1665.66699219 484.666992188 1725 278 c 1
895 664 m 1
 708.333007812 680 478 723.333007812 204 794 c 1
 196.666992188 714 184.666992188 594.333007812 168 435 c 1
 208 417.666992188 273 409 363 409 c 0
 511 409 663.666992188 416 821 430 c 1
 855 520 879.666992188 598 895 664 c 1
EndSplineSet
EndChar

StartChar: t
Encoding: 116 116 24
Width: 1563
Flags: HW
LayerCount: 2
Fore
SplineSet
1543 159 m 1
 1396 12 l 1
 1396.66699219 70 1394.33300781 156.333007812 1389 271 c 1
 1383 326.333007812 1370 368.666992188 1350 398 c 0
 1348.66699219 400 1320.66699219 432 1266 494 c 1
 1214 442 l 1
 903.333007812 376 577.333007812 343 236 343 c 0
 201.333007812 343 161.333007812 346.666992188 116 354 c 0
 52 364 20 377.666992188 20 395 c 0
 20 401 23.6669921875 408 31 416 c 0
 63.6669921875 451.333007812 114.666992188 502 184 568 c 1
 308 670.666992188 463.666992188 766 651 854 c 0
 824.333007812 935.333007812 996.333007812 997.333007812 1167 1040 c 0
 1191 1046 1210 1049 1224 1049 c 0
 1276.66699219 1049 1312.33300781 1009.66699219 1331 931 c 1
 1357 751 l 1
 1367.66699219 697.666992188 1399.33300781 644 1452 590 c 0
 1501.33300781 539.333007812 1529.66699219 478.333007812 1537 407 c 0
 1538.33300781 396.333007812 1540.33300781 313.666992188 1543 159 c 1
1223 565 m 1
 1216.33300781 583 1209.16699219 625.333007812 1201.5 692 c 0
 1193.83300781 758.666992188 1184.33300781 806 1173 834 c 0
 1154.33300781 878.666992188 1126 901 1088 901 c 0
 1074 901 1055 898 1031 892 c 0
 719 814.666992188 435.333007812 690 180 518 c 1
 220.666992188 500 284.666992188 491 372 491 c 0
 664.666992188 491 948.333007812 515.666992188 1223 565 c 1
EndSplineSet
EndChar

StartChar: T
Encoding: 84 84 25
Width: 1796
Flags: HW
LayerCount: 2
Fore
SplineSet
1776 538 m 0
 1776 482.666992188 1738 392 1662 266 c 0
 1594.66699219 153.333007812 1535 71 1483 19 c 2
 1341 -123 l 1
 1335 -117 l 1
 1387.66699219 -61.6669921875 1447.33300781 21 1514 131 c 0
 1590 257 1628 347.333007812 1628 402 c 0
 1628 436.666992188 1606.66699219 454 1564 454 c 0
 1524.66699219 454 1455 445.666992188 1355 429 c 0
 1306.33300781 421 1205.33300781 403 1052 375 c 0
 852.666992188 339 676 309.333007812 522 286 c 0
 362 262 249.666992188 250 185 250 c 0
 168.333007812 250 152.5 255.333007812 137.5 266 c 0
 122.5 276.666992188 115 290.333007812 115 307 c 0
 115 324.333007812 122.666992188 340.666992188 138 356 c 2
 280 498 l 2
 291.333007812 509.333007812 332 534.666992188 402 574 c 1
 412.666992188 596.666992188 418 619.666992188 418 643 c 0
 418 659 409 675.666992188 391 693 c 0
 325.666992188 755 202 787.666992188 20 791 c 1
 164 935 l 1
 342.666992188 931.666992188 465.666992188 896 533 828 c 0
 553 808 563 790.666992188 563 776 c 0
 563 727.333007812 534.666992188 674 478 616 c 1
 628.666992188 698 796 784 980 874 c 0
 1172.66699219 968.666992188 1278.66699219 1016 1298 1016 c 0
 1374.66699219 1016 1454.33300781 973.666992188 1537 889 c 1
 1395 747 l 1
 1314.33300781 827.666992188 1236.66699219 868 1162 868 c 0
 1132.66699219 868 988.666992188 802 730 670 c 0
 552 578.666992188 397.333007812 497.333007812 266 426 c 1
 273.333007812 407.333007812 291.666992188 398 321 398 c 0
 390.333007812 398 502.666992188 409.666992188 658 433 c 1
 843.333007812 465 1121 512.666992188 1491 576 c 0
 1595 593.333007812 1664.66699219 602 1700 602 c 0
 1750.66699219 602 1776 580.666992188 1776 538 c 0
EndSplineSet
EndChar

StartChar: w
Encoding: 119 119 26
Width: 1340
Flags: HW
LayerCount: 2
Fore
SplineSet
1320 57 m 1
 1176 -87 l 1
 1164 -54.3330078125 1151 -30.3330078125 1137 -15 c 0
 1109.66699219 15 1052.33300781 39.6669921875 965 59 c 0
 894.333007812 74.3330078125 830 82 772 82 c 0
 672 82 527 53.6669921875 337 -3 c 0
 245.666992188 -30.3330078125 184.666992188 -44 154 -44 c 0
 64.6669921875 -44 20 -9 20 61 c 0
 20 86.3330078125 46 158.666992188 98 278 c 0
 266 663.333007812 350 920.666992188 350 1050 c 0
 350 1125.33300781 328.666992188 1193.66699219 286 1255 c 1
 429 1398 l 1
 475 1332.66699219 498 1262 498 1186 c 0
 498 1056.66699219 414 799.333007812 246 414 c 0
 194 294.666992188 168 222.333007812 168 197 c 0
 168 135 208.666992188 104 290 104 c 0
 320.666992188 104 381.666992188 117.666992188 473 145 c 0
 553 169 621 187.333007812 677 200 c 1
 739.666992188 356 772.666992188 492.666992188 776 610 c 1
 924 758 l 1
 920 595.333007812 869.333007812 415.666992188 772 219 c 1
 820 226.333007812 865.333007812 230 908 230 c 0
 970 230 1035.33300781 222 1104 206 c 0
 1188 186 1246 159.333007812 1278 126 c 0
 1296 107.333007812 1310 84.3330078125 1320 57 c 1
EndSplineSet
EndChar

StartChar: W
Encoding: 87 87 27
Width: 743
Flags: HW
LayerCount: 2
Fore
SplineSet
723 929 m 0
 723 757.666992188 578 483.333007812 288 106 c 0
 259.333007812 67.3330078125 219.333007812 16.6669921875 168 -46 c 1
 26 -188 l 1
 20 -182 l 1
 390 276.666992188 575 601.666992188 575 793 c 0
 575 855 552 911.666992188 506 963 c 0
 491.333007812 979.666992188 449 1016 379 1072 c 0
 333 1109.33300781 310 1141 310 1167 c 0
 310 1217.66699219 335.666992188 1269 387 1321 c 2
 528 1463 l 2
 564 1499 599.333007812 1517 634 1517 c 0
 654.666992188 1517 672.5 1509.66699219 687.5 1495 c 0
 702.5 1480.33300781 710 1462.66699219 710 1442 c 0
 710 1395.33300781 685 1347 635 1297 c 2
 538 1200 l 1
 599.333007812 1151.33300781 640 1115.33300781 660 1092 c 0
 702 1042 723 987.666992188 723 929 c 0
562 1306 m 0
 562 1348 540.666992188 1369 498 1369 c 0
 488 1369 479.333007812 1368 472 1366 c 1
 462.666992188 1344 458 1323 458 1303 c 0
 458 1277.66699219 480.666992188 1246.66699219 526 1210 c 1
 550 1245.33300781 562 1277.33300781 562 1306 c 0
EndSplineSet
EndChar

StartChar: x
Encoding: 120 120 28
Width: 1107
Flags: HW
LayerCount: 2
Fore
SplineSet
1087 651 m 0
 1087 563 1053.66699219 474.666992188 987 386 c 0
 957.666992188 347.333007812 891.333007812 277.333007812 788 176 c 0
 694 84 598 38 500 38 c 0
 380 38 270 86.8330078125 170 184.5 c 0
 70 282.166992188 20 391 20 511 c 0
 20 637.666992188 75.6669921875 756.333007812 187 867 c 0
 307.666992188 987 392.333007812 1064.66699219 441 1100 c 0
 534.333007812 1168 639.666992188 1211.66699219 757 1231 c 1
 607 1081 l 1
 513.666992188 1065.66699219 418 1026.66699219 320 964 c 0
 308 957.333007812 291.333007812 945.666992188 270 929 c 0
 268 927 260.666992188 916 248 896 c 0
 194.666992188 812 168 729 168 647 c 0
 168 527 216 420.166992188 312 326.5 c 0
 408 232.833007812 516 186 636 186 c 0
 693.333007812 186 751.666992188 202.666992188 811 236 c 0
 820.333007812 240.666992188 832.666992188 248.333007812 848 259 c 0
 851.333007812 262.333007812 859 274 871 294 c 0
 916.333007812 370 939 443.666992188 939 515 c 0
 939 593 922.666992188 656 890 704 c 0
 852 760 796 788 722 788 c 0
 658.666992188 788 586 763 504 713 c 1
 540 750.333007812 595 805.333007812 669 878 c 0
 685.666992188 893.333007812 715.666992188 907 759 919 c 0
 798.333007812 930.333007812 831.333007812 936 858 936 c 0
 932.666992188 936 990.666992188 906.333007812 1032 847 c 0
 1068.66699219 794.333007812 1087 729 1087 651 c 0
EndSplineSet
EndChar

StartChar: X
Encoding: 88 88 29
Width: 2005
Flags: HW
LayerCount: 2
Fore
SplineSet
1985 672 m 0
 1985 592.666992188 1966.33300781 532.666992188 1929 492 c 0
 1922.33300781 484.666992188 1891.66699219 453.333007812 1837 398 c 0
 1788.33300781 348.666992188 1743.33300781 317.333007812 1702 304 c 0
 1670 294 1614 289 1534 289 c 0
 1265.33300781 289 1125.66699219 335.333007812 1115 428 c 1
 876.333007812 404 659 376 463 344 c 0
 274.333007812 313.333007812 126.666992188 281.666992188 20 249 c 1
 173 402 l 1
 273.666992188 432.666992188 428.333007812 464.333007812 637 497 c 0
 831.666992188 527.666992188 1017.66699219 552 1195 570 c 1
 1309 684 l 2
 1349 723.333007812 1407 761 1483 797 c 0
 1555.66699219 831 1621.33300781 852.666992188 1680 862 c 0
 1722.66699219 868.666992188 1765 872 1807 872 c 0
 1875.66699219 872 1923.33300781 855.333007812 1950 822 c 0
 1973.33300781 792.666992188 1985 742.666992188 1985 672 c 0
1837 536 m 0
 1837 606.666992188 1827.33300781 654.666992188 1808 680 c 0
 1785.33300781 709.333007812 1739.66699219 724 1671 724 c 0
 1533 724 1398.66699219 685 1268 607 c 1
 1264 595.666992188 1262 584.333007812 1262 573 c 0
 1262 482.333007812 1398 437 1670 437 c 0
 1739.33300781 437 1792.33300781 441.333007812 1829 450 c 1
 1834.33300781 474.666992188 1837 503.333007812 1837 536 c 0
EndSplineSet
EndChar

StartChar: y
Encoding: 121 121 30
Width: 1282
Flags: HW
LayerCount: 2
Fore
SplineSet
1262 763 m 1
 1248 747 1187.66699219 686 1081 580 c 0
 1019.66699219 518.666992188 945 453.666992188 857 385 c 1
 858.333007812 320.333007812 859.333007812 255.666992188 860 191 c 0
 863.333007812 85.6669921875 869.666992188 29.3330078125 879 22 c 0
 883.666992188 18 891.666992188 16 903 16 c 0
 923 16 950 22.6669921875 984 36 c 1
 829 -119 l 1
 807 -127.666992188 786.333007812 -132 767 -132 c 0
 756.333007812 -132 746.666992188 -127.666992188 738 -119 c 0
 722.666992188 -103.666992188 714 -27.6669921875 712 109 c 0
 709.333007812 240.333007812 706 437.666992188 702 701 c 0
 702 720.333007812 701.666992188 749.333007812 701 788 c 1
 559.666992188 632 417 497.666992188 273 385 c 1
 274.333007812 320.333007812 275.333007812 255.666992188 276 191 c 0
 279.333007812 85.6669921875 285.666992188 29.3330078125 295 22 c 0
 299.666992188 18 307.666992188 16 319 16 c 0
 339 16 366 22.6669921875 400 36 c 1
 245 -119 l 1
 223 -127.666992188 202.333007812 -132 183 -132 c 0
 172.333007812 -132 162.666992188 -127.666992188 154 -119 c 0
 138.666992188 -103.666992188 130 -27.6669921875 128 109 c 0
 125.333007812 240.333007812 122 437.666992188 118 701 c 0
 117.333007812 763.666992188 116 807 114 831 c 0
 109.333007812 877.666992188 99 920 83 958 c 0
 67 993.333007812 46 1047 20 1119 c 1
 34 1153 50.3330078125 1179.33300781 69 1198 c 2
 211 1339 l 2
 221.666992188 1349.66699219 232.666992188 1358 244 1364 c 1
 284.666992188 1362.66699219 320.166992188 1351.5 350.5 1330.5 c 0
 380.833007812 1309.5 420 1276.33300781 468 1231 c 1
 326 1089 l 1
 296.666992188 1117 249.666992188 1154.33300781 185 1201 c 1
 195 1177 210.333007812 1141.33300781 231 1094 c 0
 253.666992188 1040.66699219 265.333007812 955 266 837 c 0
 266.666992188 751 268.666992188 624.666992188 272 458 c 1
 273.333007812 459.333007812 307 484.333007812 373 533 c 0
 462.333007812 599 570.666992188 696.333007812 698 825 c 1
 693.333007812 875 683 919.333007812 667 958 c 0
 651 993.333007812 630 1047 604 1119 c 1
 618 1153 634.333007812 1179.33300781 653 1198 c 2
 795 1339 l 2
 805.666992188 1349.66699219 816.666992188 1358 828 1364 c 1
 868.666992188 1362.66699219 904.166992188 1351.5 934.5 1330.5 c 0
 964.833007812 1309.5 1004 1276.33300781 1052 1231 c 1
 910 1089 l 1
 880.666992188 1117 833.666992188 1154.33300781 769 1201 c 1
 779 1177 794.333007812 1141.33300781 815 1094 c 0
 837.666992188 1040.66699219 849.333007812 955 850 837 c 0
 850.666992188 751 852.666992188 624.666992188 856 458 c 1
 878.666992188 474.666992188 912.333007812 499.666992188 957 533 c 0
 1049.66699219 602.333007812 1149.33300781 691 1256 799 c 1
 1262 763 l 1
EndSplineSet
EndChar

StartChar: z
Encoding: 122 122 31
Width: 1839
Flags: HW
LayerCount: 2
Fore
SplineSet
1819 601 m 1
 1672 454 l 1
 1490 463.333007812 1318 471.333007812 1156 478 c 1
 1150 343 l 1
 1002 195 l 1
 1004.66699219 259 1010 355.333007812 1018 484 c 1
 881 489 l 1
 880.333007812 481 877.666992188 445.333007812 873 382 c 1
 724 234 l 1
 729.333007812 305.333007812 737 391.666992188 747 493 c 1
 495 500.333007812 252.666992188 504 20 504 c 1
 167 652 l 1
 183 652 l 2
 360.333007812 652 553.666992188 649.333007812 763 644 c 1
 771.666992188 716 780.333007812 780 789 836 c 1
 939 986 l 1
 921.666992188 875.333007812 907 760 895 640 c 1
 1032 636 l 1
 1036.66699219 679.333007812 1042 719.666992188 1048 757 c 1
 1198 907 l 1
 1185.33300781 826.333007812 1175 734.333007812 1167 631 c 1
 1341.66699219 624.333007812 1559 614.333007812 1819 601 c 1
EndSplineSet
EndChar

StartChar: j
Encoding: 106 106 32
Width: 1282
Flags: HW
LayerCount: 2
Fore
SplineSet
1262 763 m 1
 1248 747 1187.66699219 686 1081 580 c 0
 1019.66699219 518.666992188 945 453.666992188 857 385 c 1
 858.333007812 320.333007812 859.333007812 255.666992188 860 191 c 0
 863.333007812 85.6669921875 869.666992188 29.3330078125 879 22 c 0
 883.666992188 18 891.666992188 16 903 16 c 0
 923 16 950 22.6669921875 984 36 c 1
 829 -119 l 1
 807 -127.666992188 786.333007812 -132 767 -132 c 0
 756.333007812 -132 746.666992188 -127.666992188 738 -119 c 0
 722.666992188 -103.666992188 714 -27.6669921875 712 109 c 0
 709.333007812 240.333007812 706 437.666992188 702 701 c 0
 702 720.333007812 701.666992188 749.333007812 701 788 c 1
 559.666992188 632 417 497.666992188 273 385 c 1
 274.333007812 320.333007812 275.333007812 255.666992188 276 191 c 0
 279.333007812 85.6669921875 285.666992188 29.3330078125 295 22 c 0
 299.666992188 18 307.666992188 16 319 16 c 0
 339 16 366 22.6669921875 400 36 c 1
 245 -119 l 1
 223 -127.666992188 202.333007812 -132 183 -132 c 0
 172.333007812 -132 162.666992188 -127.666992188 154 -119 c 0
 138.666992188 -103.666992188 130 -27.6669921875 128 109 c 0
 125.333007812 240.333007812 122 437.666992188 118 701 c 0
 117.333007812 763.666992188 116 807 114 831 c 0
 109.333007812 877.666992188 99 920 83 958 c 0
 67 993.333007812 46 1047 20 1119 c 1
 34 1153 50.3330078125 1179.33300781 69 1198 c 2
 211 1339 l 2
 221.666992188 1349.66699219 232.666992188 1358 244 1364 c 1
 284.666992188 1362.66699219 320.166992188 1351.5 350.5 1330.5 c 0
 380.833007812 1309.5 420 1276.33300781 468 1231 c 1
 326 1089 l 1
 296.666992188 1117 249.666992188 1154.33300781 185 1201 c 1
 195 1177 210.333007812 1141.33300781 231 1094 c 0
 253.666992188 1040.66699219 265.333007812 955 266 837 c 0
 266.666992188 751 268.666992188 624.666992188 272 458 c 1
 273.333007812 459.333007812 307 484.333007812 373 533 c 0
 462.333007812 599 570.666992188 696.333007812 698 825 c 1
 693.333007812 875 683 919.333007812 667 958 c 0
 651 993.333007812 630 1047 604 1119 c 1
 618 1153 634.333007812 1179.33300781 653 1198 c 2
 795 1339 l 2
 805.666992188 1349.66699219 816.666992188 1358 828 1364 c 1
 868.666992188 1362.66699219 904.166992188 1351.5 934.5 1330.5 c 0
 964.833007812 1309.5 1004 1276.33300781 1052 1231 c 1
 910 1089 l 1
 880.666992188 1117 833.666992188 1154.33300781 769 1201 c 1
 779 1177 794.333007812 1141.33300781 815 1094 c 0
 837.666992188 1040.66699219 849.333007812 955 850 837 c 0
 850.666992188 751 852.666992188 624.666992188 856 458 c 1
 878.666992188 474.666992188 912.333007812 499.666992188 957 533 c 0
 1049.66699219 602.333007812 1149.33300781 691 1256 799 c 1
 1262 763 l 1
EndSplineSet
EndChar

StartChar: uF44E8
Encoding: 1000680 1000680 33
Width: 1998
Flags: HW
LayerCount: 2
Fore
SplineSet
1908 1354 m 0
 1908 1306.66666667 1879.33333333 1283 1822 1283 c 0
 1810 1283 1800.33333333 1282.66666667 1793 1282 c 0
 1742.33333333 1277.33333333 1696.16666667 1251.16666667 1654.5 1203.5 c 0
 1612.83333333 1155.83333333 1592 1106.33333333 1592 1055 c 0
 1592 1048.33333333 1590.83333333 1038.33333333 1588.5 1025 c 0
 1586.16666667 1011.66666667 1585 1001.66666667 1585 995 c 0
 1585 925.666666667 1611.66666667 858 1665 792 c 0
 1718.33333333 726 1779 687.333333333 1847 676 c 0
 1847.66666667 676 1856 675 1872 673 c 1
 1888.66666667 656.333333333 1897 633.333333333 1897 604 c 0
 1897 594 1894.66666667 581.666666667 1890 567 c 1
 1217 567 l 1
 1304.33333333 407 1348 311.666666667 1348 281 c 0
 1348 253.666666667 1319.66666667 240 1263 240 c 0
 1230.33333333 240 1171.66666667 340.333333333 1087 541 c 1
 1087 -324 l 1
 912 -324 l 1
 912 533 l 1
 864 395 l 2
 844.666666667 342.333333333 824 298.333333333 802 263 c 0
 788 240.333333333 772.333333333 229 755 229 c 0
 705 229 680 248.333333333 680 287 c 0
 680 316.333333333 719 409.666666667 797 567 c 1
 420 567 l 2
 324 567 243.333333333 613.333333333 178 706 c 0
 119.333333333 789.333333333 90 881.333333333 90 982 c 0
 90 1101.33333333 133 1199.33333333 219 1276 c 0
 301.666666667 1350.66666667 403.333333333 1388 524 1388 c 2
 912 1388 l 1
 912 1562 l 1
 1087 1562 l 1
 1087 1388 l 1
 1887 1388 l 1
 1901 1378 1908 1366.66666667 1908 1354 c 0
1861 1342 m 1
 1518 1342 l 1
 1326 1001 l 1
 1544 613 l 1
 1850 613 l 1
 1847 630 l 1
 1768.33333333 636 1696.66666667 679 1632 759 c 0
 1570 835.666666667 1539 914.333333333 1539 995 c 0
 1539 1001.66666667 1540.16666667 1011.66666667 1542.5 1025 c 0
 1544.83333333 1038.33333333 1546 1048.33333333 1546 1055 c 0
 1546 1118.33333333 1570.83333333 1178.5 1620.5 1235.5 c 0
 1670.16666667 1292.5 1726.33333333 1323.33333333 1789 1328 c 0
 1797.66666667 1328.66666667 1812.33333333 1329 1833 1329 c 0
 1848.33333333 1329 1857.66666667 1333.33333333 1861 1342 c 1
1465 1342 m 1
 1136 1342 l 1
 1300 1048 l 1
 1465 1342 l 1
1274 1001 m 1
 1087 1335 l 1
 1087 667 l 1
 1274 1001 l 1
1491 613 m 1
 1300 955 l 1
 1109 613 l 1
 1491 613 l 1
865 1342 m 1
 536 1342 l 1
 700 1048 l 1
 865 1342 l 1
912 670 m 1
 912 1341 l 1
 906.666666667 1328.33333333 886 1289 850 1223 c 0
 832.666666667 1191.66666667 791.333333333 1117.66666667 726 1001 c 1
 912 670 l 1
1301 287 m 1
 1295.66666667 315 1250.33333333 408.333333333 1165 567 c 1
 1127 567 l 1
 1197.66666667 399 1244.66666667 305.333333333 1268 286 c 1
 1286 285 l 2
 1290 285 1295 285.666666667 1301 287 c 1
1041 -278 m 1
 1041 1516 l 1
 958 1516 l 1
 958 -278 l 1
 1041 -278 l 1
891 613 m 1
 700 955 l 1
 509 613 l 1
 891 613 l 1
674 1001 m 1
 483 1341 l 1
 383.666666667 1332.33333333 301.333333333 1295.66666667 236 1231 c 0
 169.333333333 1163.66666667 136 1080.66666667 136 982 c 0
 136 894.666666667 161 813.666666667 211 739 c 0
 267.666666667 655 337.333333333 613 420 613 c 2
 456 613 l 1
 674 1001 l 1
875 567 m 1
 848 567 l 1
 766.666666667 398.333333333 726 305 726 287 c 0
 726 279 735.666666667 275 755 275 c 0
 761 275 778.666666667 312.333333333 808 387 c 0
 824.666666667 429.666666667 847 489.666666667 875 567 c 1
EndSplineSet
EndChar

StartChar: uF41F0
Encoding: 999920 999920 34
Width: 1950
Flags: HW
LayerCount: 2
Fore
SplineSet
1860 -410 m 1
 90 -410 l 1
 90 -19 l 1
 1742 -19 l 1
 1742 127 l 1
 585 1241 l 1
 90 1241 l 1
 90 1359 l 1
 1860 1359 l 1
 1860 -410 l 1
1742 746 m 1
 1742 1241 l 1
 1227 1241 l 1
 1742 746 l 1
1742 647 m 1
 1742 682 l 1
 1160 1241 l 1
 1125 1241 l 1
 1742 647 l 1
1742 290 m 1
 1742 583 l 1
 1058 1241 l 1
 754 1241 l 1
 1742 290 l 1
1742 191 m 1
 1742 226 l 1
 687 1241 l 1
 652 1241 l 1
 1742 191 l 1
1814 -364 m 1
 1814 1313 l 1
 136 1313 l 1
 136 1287 l 1
 1788 1287 l 1
 1788 -364 l 1
 1814 -364 l 1
1742 -364 m 1
 1742 -65 l 1
 1552 -65 l 1
 1552 -364 l 1
 1742 -364 l 1
1506 -364 m 1
 1506 -65 l 1
 1316 -65 l 1
 1316 -364 l 1
 1506 -364 l 1
1270 -364 m 1
 1270 -65 l 1
 1080 -65 l 1
 1080 -364 l 1
 1270 -364 l 1
1034 -364 m 1
 1034 -65 l 1
 844 -65 l 1
 844 -364 l 1
 1034 -364 l 1
798 -364 m 1
 798 -65 l 1
 608 -65 l 1
 608 -364 l 1
 798 -364 l 1
562 -364 m 1
 562 -65 l 1
 372 -65 l 1
 372 -364 l 1
 562 -364 l 1
326 -364 m 1
 326 -65 l 1
 136 -65 l 1
 136 -364 l 1
 326 -364 l 1
EndSplineSet
EndChar
